<svg width="15" height="15" viewBox="0 0 15 15" fill="none" xmlns="http://www.w3.org/2000/svg">
<path d="M14.25 9C14.0511 9 13.8603 9.07463 13.7197 9.20747C13.579 9.3403 13.5 9.52047 13.5 9.70833V12.5417C13.5 12.7295 13.421 12.9097 13.2803 13.0425C13.1397 13.1754 12.9489 13.25 12.75 13.25H2.25C2.05109 13.25 1.86032 13.1754 1.71967 13.0425C1.57902 12.9097 1.5 12.7295 1.5 12.5417V9.70833C1.5 9.52047 1.42098 9.3403 1.28033 9.20747C1.13968 9.07463 0.948912 9 0.75 9C0.551088 9 0.360322 9.07463 0.21967 9.20747C0.0790176 9.3403 0 9.52047 0 9.70833V12.5417C0 13.1053 0.237053 13.6458 0.65901 14.0443C1.08097 14.4428 1.65326 14.6667 2.25 14.6667H12.75C13.3467 14.6667 13.919 14.4428 14.341 14.0443C14.7629 13.6458 15 13.1053 15 12.5417V9.70833C15 9.52047 14.921 9.3403 14.7803 9.20747C14.6397 9.07463 14.4489 9 14.25 9ZM6.9675 10.2112C7.03883 10.2757 7.12294 10.3263 7.215 10.36C7.30478 10.3975 7.40185 10.4168 7.5 10.4168C7.59815 10.4168 7.69522 10.3975 7.785 10.36C7.87706 10.3263 7.96117 10.2757 8.0325 10.2112L11.0325 7.37792C11.1737 7.24453 11.2531 7.06363 11.2531 6.875C11.2531 6.68637 11.1737 6.50547 11.0325 6.37208C10.8913 6.2387 10.6997 6.16377 10.5 6.16377C10.3003 6.16377 10.1087 6.2387 9.9675 6.37208L8.25 8.00125V1.20833C8.25 1.02047 8.17098 0.840304 8.03033 0.707466C7.88968 0.574628 7.69891 0.5 7.5 0.5C7.30109 0.5 7.11032 0.574628 6.96967 0.707466C6.82902 0.840304 6.75 1.02047 6.75 1.20833V8.00125L5.0325 6.37208C4.96257 6.30604 4.87955 6.25365 4.78819 6.21791C4.69682 6.18216 4.59889 6.16377 4.5 6.16377C4.40111 6.16377 4.30318 6.18216 4.21181 6.21791C4.12045 6.25365 4.03743 6.30604 3.9675 6.37208C3.89757 6.43813 3.8421 6.51653 3.80426 6.60282C3.76641 6.68911 3.74693 6.7816 3.74693 6.875C3.74693 6.9684 3.76641 7.06089 3.80426 7.14718C3.8421 7.23347 3.89757 7.31187 3.9675 7.37792L6.9675 10.2112Z" fill="white"/>
</svg>
