<svg width="16" height="14" viewBox="0 0 16 14" fill="none" xmlns="http://www.w3.org/2000/svg">
<path d="M16 1.56048C15.3987 1.82136 14.7627 1.99381 14.112 2.07248C14.7985 1.66234 15.313 1.01711 15.56 0.25648C14.9148 0.640531 14.2086 0.911118 13.472 1.05648C12.9796 0.522538 12.324 0.167117 11.6078 0.0459614C10.8917 -0.0751946 10.1556 0.044767 9.51503 0.387032C8.87443 0.729297 8.36555 1.2745 8.06819 1.93715C7.77084 2.59979 7.70183 3.34239 7.872 4.04848C6.56754 3.9825 5.29155 3.64284 4.12692 3.05157C2.96229 2.4603 1.93508 1.63063 1.112 0.61648C0.82331 1.12061 0.671615 1.69154 0.672 2.27248C0.670976 2.81199 0.803374 3.34337 1.0574 3.81933C1.31143 4.29529 1.67921 4.70105 2.128 5.00048C1.60638 4.98629 1.09591 4.84632 0.64 4.59248V4.63248C0.64391 5.38839 0.908795 6.11975 1.38985 6.70285C1.87091 7.28595 2.5386 7.68499 3.28 7.83248C2.9946 7.91933 2.6983 7.96513 2.4 7.96848C2.19351 7.96607 1.98754 7.94734 1.784 7.91248C1.99513 8.56273 2.4037 9.131 2.95286 9.53821C3.50202 9.94542 4.16446 10.1713 4.848 10.1845C3.69376 11.0927 2.26871 11.5884 0.8 11.5925C0.532588 11.5934 0.265388 11.5773 0 11.5445C1.49954 12.5127 3.24705 13.0267 5.032 13.0245C6.26375 13.0373 7.48571 12.8045 8.62649 12.3397C9.76728 11.875 10.804 11.1876 11.6762 10.3177C12.5483 9.44777 13.2384 8.41279 13.706 7.2732C14.1737 6.13362 14.4096 4.91226 14.4 3.68048C14.4 3.54448 14.4 3.40048 14.4 3.25648C15.0278 2.78833 15.5692 2.21442 16 1.56048V1.56048Z" fill="white"/>
</svg>
