<svg width="17" height="16" viewBox="0 0 17 16" fill="none" xmlns="http://www.w3.org/2000/svg">
<path d="M12.772 2.768C12.5821 2.768 12.3965 2.8243 12.2387 2.92979C12.0808 3.03528 11.9577 3.18521 11.8851 3.36062C11.8124 3.53604 11.7934 3.72906 11.8304 3.91529C11.8675 4.10151 11.9589 4.27256 12.0932 4.40682C12.2274 4.54108 12.3985 4.63251 12.5847 4.66955C12.7709 4.7066 12.964 4.68758 13.1394 4.61492C13.3148 4.54226 13.4647 4.41922 13.5702 4.26135C13.6757 4.10348 13.732 3.91787 13.732 3.728C13.732 3.47339 13.6309 3.22921 13.4508 3.04918C13.2708 2.86914 13.0266 2.768 12.772 2.768V2.768ZM16.452 4.704C16.4364 4.04024 16.3121 3.38352 16.084 2.76C15.8806 2.22651 15.564 1.74342 15.156 1.344C14.7599 0.933941 14.2756 0.619341 13.74 0.424C13.1181 0.188929 12.4607 0.061768 11.796 0.048C10.948 -4.47035e-08 10.676 0 8.5 0C6.324 0 6.052 -4.47035e-08 5.204 0.048C4.53932 0.061768 3.88187 0.188929 3.26 0.424C2.72534 0.621319 2.24155 0.935648 1.844 1.344C1.43394 1.74014 1.11934 2.22435 0.924 2.76C0.688929 3.38187 0.561768 4.03932 0.548 4.704C0.5 5.552 0.5 5.824 0.5 8C0.5 10.176 0.5 10.448 0.548 11.296C0.561768 11.9607 0.688929 12.6181 0.924 13.24C1.11934 13.7756 1.43394 14.2599 1.844 14.656C2.24155 15.0644 2.72534 15.3787 3.26 15.576C3.88187 15.8111 4.53932 15.9382 5.204 15.952C6.052 16 6.324 16 8.5 16C10.676 16 10.948 16 11.796 15.952C12.4607 15.9382 13.1181 15.8111 13.74 15.576C14.2756 15.3807 14.7599 15.0661 15.156 14.656C15.5658 14.2581 15.8827 13.7746 16.084 13.24C16.3121 12.6165 16.4364 11.9598 16.452 11.296C16.452 10.448 16.5 10.176 16.5 8C16.5 5.824 16.5 5.552 16.452 4.704V4.704ZM15.012 11.2C15.0062 11.7078 14.9142 12.211 14.74 12.688C14.6123 13.0362 14.4071 13.3507 14.14 13.608C13.8805 13.8724 13.5666 14.0771 13.22 14.208C12.743 14.3822 12.2398 14.4742 11.732 14.48C10.932 14.52 10.636 14.528 8.532 14.528C6.428 14.528 6.132 14.528 5.332 14.48C4.80471 14.4899 4.27968 14.4087 3.78 14.24C3.44863 14.1025 3.14908 13.8982 2.9 13.64C2.63447 13.383 2.43187 13.0682 2.308 12.72C2.11269 12.2361 2.00435 11.7216 1.988 11.2C1.988 10.4 1.94 10.104 1.94 8C1.94 5.896 1.94 5.6 1.988 4.8C1.99159 4.28084 2.08636 3.76636 2.268 3.28C2.40884 2.94233 2.62501 2.64133 2.9 2.4C3.14305 2.12493 3.44343 1.90648 3.78 1.76C4.26764 1.58403 4.7816 1.49206 5.3 1.488C6.1 1.488 6.396 1.44 8.5 1.44C10.604 1.44 10.9 1.44 11.7 1.488C12.2078 1.49382 12.711 1.5858 13.188 1.76C13.5515 1.89492 13.8778 2.11428 14.14 2.4C14.4022 2.64574 14.607 2.94619 14.74 3.28C14.9178 3.76715 15.0098 4.28142 15.012 4.8C15.052 5.6 15.06 5.896 15.06 8C15.06 10.104 15.052 10.4 15.012 11.2ZM8.5 3.896C7.68865 3.89758 6.89597 4.13962 6.22212 4.59153C5.54828 5.04345 5.0235 5.68496 4.71411 6.435C4.40471 7.18505 4.32458 8.00997 4.48384 8.80554C4.64309 9.60111 5.03459 10.3316 5.60886 10.9048C6.18313 11.4779 6.91441 11.868 7.71029 12.0257C8.50617 12.1834 9.33093 12.1017 10.0804 11.7908C10.8298 11.48 11.4703 10.954 11.9209 10.2792C12.3715 9.6045 12.612 8.81135 12.612 8C12.6131 7.46008 12.5074 6.92529 12.301 6.42636C12.0946 5.92744 11.7916 5.47425 11.4095 5.09284C11.0273 4.71143 10.5736 4.40934 10.0742 4.20394C9.57492 3.99854 9.03991 3.89389 8.5 3.896V3.896ZM8.5 10.664C7.97311 10.664 7.45805 10.5078 7.01996 10.215C6.58187 9.92231 6.24042 9.50625 6.03878 9.01947C5.83715 8.53269 5.7844 7.99705 5.88719 7.48028C5.98998 6.96351 6.2437 6.48883 6.61627 6.11627C6.98883 5.7437 7.46351 5.48998 7.98028 5.38719C8.49705 5.2844 9.03269 5.33715 9.51947 5.53878C10.0063 5.74042 10.4223 6.08187 10.715 6.51996C11.0078 6.95805 11.164 7.47311 11.164 8C11.164 8.34984 11.0951 8.69626 10.9612 9.01947C10.8273 9.34268 10.6311 9.63636 10.3837 9.88373C10.1364 10.1311 9.84268 10.3273 9.51947 10.4612C9.19626 10.5951 8.84984 10.664 8.5 10.664V10.664Z" fill="white"/>
</svg>
