<svg width="16" height="16" viewBox="0 0 16 16" fill="none" xmlns="http://www.w3.org/2000/svg">
<path d="M14.3908 0.000111863H1.60915C1.46548 -0.0020038 1.32281 0.0259095 1.18931 0.0822577C1.05581 0.138606 0.934082 0.222285 0.831085 0.328517C0.728087 0.434748 0.645836 0.561451 0.589028 0.70139C0.53222 0.841328 0.501968 0.99176 0.5 1.1441V14.8559C0.501968 15.0082 0.53222 15.1587 0.589028 15.2986C0.645836 15.4385 0.728087 15.5653 0.831085 15.6715C0.934082 15.7777 1.05581 15.8614 1.18931 15.9177C1.32281 15.9741 1.46548 16.002 1.60915 15.9999H14.3908C14.5345 16.002 14.6772 15.9741 14.8107 15.9177C14.9442 15.8614 15.0659 15.7777 15.1689 15.6715C15.2719 15.5653 15.3542 15.4385 15.411 15.2986C15.4678 15.1587 15.498 15.0082 15.5 14.8559V1.1441C15.498 0.99176 15.4678 0.841328 15.411 0.70139C15.3542 0.561451 15.2719 0.434748 15.1689 0.328517C15.0659 0.222285 14.9442 0.138606 14.8107 0.0822577C14.6772 0.0259095 14.5345 -0.0020038 14.3908 0.000111863V0.000111863ZM5.0498 13.3919H2.78622V6.19203H5.0498V13.3919ZM3.91801 5.18404C3.60583 5.18404 3.30644 5.05256 3.0857 4.81851C2.86496 4.58447 2.74095 4.26704 2.74095 3.93606C2.74095 3.60507 2.86496 3.28764 3.0857 3.0536C3.30644 2.81956 3.60583 2.68807 3.91801 2.68807C4.08377 2.66814 4.25164 2.68556 4.41062 2.73918C4.5696 2.7928 4.7161 2.88142 4.84054 2.99924C4.96497 3.11706 5.06453 3.26141 5.1327 3.42285C5.20087 3.58429 5.2361 3.75918 5.2361 3.93606C5.2361 4.11294 5.20087 4.28782 5.1327 4.44926C5.06453 4.6107 4.96497 4.75506 4.84054 4.87287C4.7161 4.99069 4.5696 5.07931 4.41062 5.13293C4.25164 5.18656 4.08377 5.20397 3.91801 5.18404V5.18404ZM13.2138 13.3919H10.9502V9.52798C10.9502 8.55999 10.6258 7.928 9.80332 7.928C9.54879 7.92998 9.30095 8.01462 9.09319 8.17054C8.88543 8.32645 8.72773 8.54613 8.64135 8.79999C8.5823 8.98802 8.55672 9.18604 8.5659 9.38398V13.3839H6.30231C6.30231 13.3839 6.30231 6.84002 6.30231 6.18402H8.5659V7.20001C8.77153 6.8217 9.0706 6.51004 9.43092 6.29859C9.79123 6.08713 10.1991 5.98391 10.6107 6.00003C12.1197 6.00003 13.2138 7.03201 13.2138 9.24798V13.3919Z" fill="white"/>
</svg>
